<svg class="logo" width="100%" height="100%" viewBox="0 0 448 512" xmlns="http://www.w3.org/2000/svg" xmlns:svg="http://www.w3.org/2000/svg">
 <g>
  <path id="Figurer" stroke-miterlimit="4" stroke-width="1.12343"
        d="M 125.00,3.21
           C 142.58,3.00 184.96,2.07 200.00,4.44
             229.53,9.09 265.81,31.41 285.91,53.00
             291.89,59.42 299.79,69.40 304.13,77.00
             304.13,77.00 327.42,135.00 327.42,135.00
             327.42,135.00 380.31,279.00 380.31,279.00
             380.31,279.00 426.00,408.00 426.00,408.00
             426.00,408.00 438.00,443.00 438.00,443.00
             440.33,449.99 443.26,457.56 442.96,465.00
             442.09,486.59 424.22,504.26 404.00,509.10
             398.74,510.36 391.52,510.06 386.00,510.00
             364.49,509.74 351.78,492.18 341.00,476.00
             337.21,470.31 330.08,456.85 324.00,454.60
             322.07,453.89 319.08,454.00 317.00,454.00
             317.00,454.00 285.00,454.00 285.00,454.00
             285.00,454.00 268.00,453.00 268.00,453.00
             268.00,453.00 49.00,453.00 49.00,453.00
             36.24,452.85 18.72,446.49 14.65,433.00
             13.89,430.50 14.00,427.60 14.00,425.00
             14.00,425.00 14.00,109.00 14.00,109.00
             14.00,109.00 14.00,44.00 14.00,44.00
             14.00,33.88 11.96,23.15 19.33,15.17
             21.33,13.01 24.54,10.70 27.00,9.03
             38.20,1.44 42.90,5.14 55.00,3.21
             55.00,3.21 125.00,3.21 125.00,3.21 Z
           M 39.00,12.53
           C 30.25,14.61 22.16,21.66 22.00,31.00
             22.00,31.00 22.00,95.00 22.00,95.00
             22.00,95.00 22.00,354.00 22.00,354.00
             22.00,354.00 22.00,410.00 22.00,410.00
             22.00,416.70 21.00,428.44 24.72,433.96
             31.02,443.28 43.71,444.98 54.00,445.00
             54.00,445.00 246.00,445.00 246.00,445.00
             246.00,445.00 261.00,446.00 261.00,446.00
             261.00,446.00 325.00,446.00 325.00,446.00
             327.24,446.00 330.68,445.78 332.59,447.02
             334.47,448.25 336.07,451.98 337.18,454.00
             337.18,454.00 345.05,467.00 345.05,467.00
             355.10,482.84 367.01,501.74 388.00,502.00
             407.80,502.24 423.90,495.52 431.79,476.00
             433.47,471.87 435.18,467.54 434.81,463.00
             434.42,458.19 430.06,446.19 428.33,441.00
             428.33,441.00 414.34,400.00 414.34,400.00
             414.34,400.00 368.31,270.00 368.31,270.00
             368.31,270.00 320.42,140.00 320.42,140.00
             310.70,114.00 301.47,82.71 282.83,62.00
             262.86,39.81 227.95,17.16 198.00,12.44
             198.00,12.44 188.00,11.91 188.00,11.91
             188.00,11.91 176.00,11.09 176.00,11.09
             176.00,11.09 124.00,11.09 124.00,11.09
             124.00,11.09 52.00,11.09 52.00,11.09
             52.00,11.09 39.00,12.53 39.00,12.53 Z
           M 175.00,40.00
           C 185.23,40.02 192.36,43.01 202.00,45.98
             209.12,48.16 216.24,50.11 223.00,53.32
             245.15,63.85 266.26,86.66 276.14,109.00
             280.82,119.59 284.86,135.41 285.00,147.00
             285.32,174.62 277.91,200.62 259.70,222.00
             259.70,222.00 232.92,250.00 232.92,250.00
             227.61,256.45 223.18,263.29 224.29,272.00
             225.86,284.37 236.71,302.19 243.20,313.00
             243.20,313.00 286.81,383.00 286.81,383.00
             291.97,391.42 304.78,409.05 306.00,418.00
             306.00,418.00 232.00,418.00 232.00,418.00
             232.00,418.00 217.00,419.00 217.00,419.00
             217.00,419.00 95.00,419.00 95.00,419.00
             95.00,419.00 80.00,420.00 80.00,420.00
             80.00,420.00 50.00,420.00 50.00,420.00
             50.00,420.00 49.00,404.00 49.00,404.00
             49.00,404.00 49.00,228.00 49.00,228.00
             49.00,228.00 49.00,130.00 49.00,130.00
             49.00,130.00 50.00,115.00 50.00,115.00
             50.00,115.00 50.00,40.00 50.00,40.00
             50.00,40.00 175.00,40.00 175.00,40.00 Z
           M 335.95,272.00
           C 335.95,272.00 387.20,409.00 387.20,409.00
             392.51,422.27 400.60,441.27 402.57,455.00
             403.33,460.26 403.87,470.72 396.96,471.85
             384.97,473.82 381.65,465.47 376.00,457.00
             376.00,457.00 341.31,403.00 341.31,403.00
             341.31,403.00 281.40,308.00 281.40,308.00
             281.40,308.00 266.72,284.00 266.72,284.00
             264.92,280.83 262.00,276.78 262.49,273.00
             263.01,269.06 267.69,263.96 270.29,261.00
             270.29,261.00 293.00,236.00 293.00,236.00
             293.00,236.00 308.53,213.14 308.53,213.14
             310.22,211.25 310.85,211.07 313.00,210.00
             313.00,210.00 335.95,272.00 335.95,272.00 Z
           M 100.95,361.67
           C 105.75,360.56 105.51,354.71 103.40,352.60
             101.56,350.75 99.46,351.17 97.23,351.60
             91.52,355.73 94.81,363.08 100.95,361.67 Z
           M 61.00,356.00
           C 61.00,356.00 61.00,398.00 61.00,398.00
             61.00,398.00 72.00,398.00 72.00,398.00
             72.00,398.00 72.00,381.00 72.00,381.00
             72.00,381.00 88.00,381.00 88.00,381.00
             88.00,381.00 88.00,373.00 88.00,373.00
             88.00,373.00 72.00,373.00 72.00,373.00
             72.00,373.00 72.00,364.00 72.00,364.00
             72.00,364.00 90.00,364.00 90.00,364.00
             90.00,364.00 90.00,356.00 90.00,356.00
             90.00,356.00 61.00,356.00 61.00,356.00 Z
           M 116.10,367.85
           C 108.73,373.27 108.18,387.63 115.21,393.35
             119.29,396.67 125.06,396.00 130.00,396.00
             126.01,403.82 120.16,400.95 113.00,400.00
             113.00,400.00 112.00,408.00 112.00,408.00
             118.20,408.82 128.37,410.40 133.90,406.91
             138.91,403.75 139.93,397.44 140.00,392.00
             140.00,392.00 140.00,366.00 140.00,366.00
             132.95,365.07 122.18,363.39 116.10,367.85 Z
           M 202.94,366.60
           C 201.05,363.91 186.50,364.38 183.99,367.70
             182.83,369.24 183.01,372.14 183.00,374.00
             183.00,374.00 183.00,398.00 183.00,398.00
             183.00,398.00 193.00,398.00 193.00,398.00
             193.00,398.00 193.00,380.00 193.00,380.00
             193.00,380.00 194.60,373.83 194.60,373.83
             194.60,373.83 202.94,373.00 202.94,373.00
             203.20,371.29 203.89,368.07 202.94,366.60 Z
           M 234.52,374.00
           C 231.38,365.16 219.54,361.94 212.04,367.51
             202.83,374.35 202.64,391.32 213.04,397.08
             216.24,398.85 218.46,398.95 222.00,399.00
             227.38,399.06 228.96,399.10 234.00,397.00
             234.00,397.00 233.00,390.00 233.00,390.00
             224.23,391.60 220.51,393.31 215.00,385.00
             215.00,385.00 236.00,385.00 236.00,385.00
             235.96,381.10 235.85,377.74 234.52,374.00 Z
           M 261.94,366.60
           C 260.05,363.91 245.50,364.38 242.99,367.70
             241.83,369.24 242.01,372.14 242.00,374.00
             242.00,374.00 242.00,398.00 242.00,398.00
             242.00,398.00 252.00,398.00 252.00,398.00
             252.00,398.00 252.00,380.00 252.00,380.00
             252.00,380.00 253.60,373.83 253.60,373.83
             253.60,373.83 261.94,373.00 261.94,373.00
             262.20,371.29 262.89,368.07 261.94,366.60 Z
           M 95.00,366.00
           C 95.00,366.00 95.00,398.00 95.00,398.00
             95.00,398.00 105.00,398.00 105.00,398.00
             105.00,398.00 105.00,366.00 105.00,366.00
             105.00,366.00 95.00,366.00 95.00,366.00 Z
           M 147.00,366.00
           C 147.00,373.53 145.93,390.26 151.28,395.77
             152.65,397.19 154.10,398.05 156.00,398.57
             159.33,399.48 171.79,399.41 174.40,397.07
             176.25,395.40 175.98,392.27 176.00,390.00
             176.00,390.00 176.00,366.00 176.00,366.00
             176.00,366.00 166.00,366.00 166.00,366.00
             166.00,366.00 166.00,383.00 166.00,383.00
             165.98,385.87 166.00,392.48 161.11,390.60
             155.25,388.34 157.00,371.42 157.00,366.00
             157.00,366.00 147.00,366.00 147.00,366.00 Z
           M 125.10,388.13
           C 119.29,387.13 118.89,378.10 122.51,374.51
             125.20,371.84 129.10,371.61 129.95,376.06
             129.95,376.06 129.95,381.00 129.95,381.00
             129.95,381.00 129.95,388.13 129.95,388.13
             128.45,388.20 126.66,388.57 125.10,388.13 Z
           M 226.00,379.00
           C 226.00,379.00 215.00,379.00 215.00,379.00
             218.45,370.70 224.60,370.57 226.00,379.00 Z" />
 </g>
</svg>
